<?xml version="1.0" encoding="utf-8"?>
<!-- Generator: Adobe Illustrator 26.2.1, SVG Export Plug-In . SVG Version: 6.00 Build 0)  -->
<svg version="1.1" id="Layer_1" xmlns="http://www.w3.org/2000/svg" xmlns:xlink="http://www.w3.org/1999/xlink" x="0px" y="0px"
	 viewBox="0 0 595.28 841.89" style="enable-background:new 0 0 595.28 841.89;" xml:space="preserve">
<style type="text/css">
	.st0{fill:#007B3F;}
	.st1{fill:none;stroke:#007B3F;stroke-width:1.573;}
</style>
<g>
	<path class="st0" d="M306.05,410.51h-6.07v-4.2h10.91v15.18h-4.84V410.51z M297.64,421.69c-1.95,0-3.8-0.39-5.54-1.16
		s-3.27-1.85-4.59-3.22s-2.34-2.97-3.08-4.8s-1.1-3.81-1.1-5.95c0-2.02,0.37-3.93,1.1-5.72c0.74-1.79,1.77-3.36,3.1-4.72
		c1.33-1.36,2.89-2.42,4.67-3.2s3.72-1.16,5.82-1.16c2.83,0,5.26,0.59,7.28,1.77s3.54,2.74,4.56,4.68l-4.37,3.16
		c-0.76-1.47-1.83-2.59-3.21-3.37c-1.37-0.78-2.87-1.16-4.48-1.16c-1.27,0-2.43,0.26-3.48,0.79c-1.05,0.53-1.95,1.25-2.72,2.16
		c-0.76,0.92-1.35,1.97-1.76,3.16s-0.62,2.45-0.62,3.78c0,1.41,0.22,2.72,0.66,3.91s1.06,2.23,1.87,3.12
		c0.81,0.89,1.75,1.59,2.82,2.1c1.08,0.51,2.26,0.77,3.57,0.77c1.53,0,2.99-0.39,4.39-1.16c1.4-0.78,2.71-1.91,3.93-3.41v5.65
		C303.95,420.36,301.01,421.69,297.64,421.69"/>
	<path class="st0" d="M289.23,437.7c0,1.28,0.2,2.51,0.6,3.7s0.97,2.25,1.72,3.18s1.67,1.66,2.76,2.2s2.33,0.81,3.71,0.81
		c1.42,0,2.68-0.28,3.78-0.85s2.02-1.33,2.76-2.29c0.74-0.96,1.3-2.02,1.68-3.2c0.38-1.18,0.57-2.36,0.57-3.56
		c0-1.27-0.2-2.5-0.61-3.68c-0.41-1.18-0.99-2.23-1.74-3.16s-1.67-1.66-2.76-2.2s-2.31-0.81-3.67-0.81c-1.44,0-2.71,0.28-3.8,0.85
		s-2,1.32-2.74,2.27c-0.74,0.94-1.3,2-1.68,3.16C289.42,435.29,289.23,436.48,289.23,437.7 M297.98,452.67
		c-2.21,0-4.21-0.42-6.01-1.25c-1.8-0.83-3.34-1.96-4.63-3.39c-1.29-1.43-2.29-3.04-2.99-4.82c-0.71-1.79-1.06-3.62-1.06-5.51
		c0-1.97,0.38-3.85,1.12-5.63c0.75-1.79,1.78-3.38,3.1-4.78s2.87-2.51,4.67-3.33c1.8-0.82,3.77-1.23,5.92-1.23
		c2.18,0,4.17,0.43,5.97,1.29c1.8,0.86,3.33,2.01,4.61,3.45c1.27,1.44,2.26,3.05,2.97,4.82c0.71,1.77,1.06,3.6,1.06,5.49
		c0,1.94-0.37,3.8-1.1,5.59c-0.74,1.79-1.76,3.38-3.08,4.78c-1.32,1.4-2.87,2.5-4.67,3.3C302.06,452.27,300.1,452.67,297.98,452.67"
		/>
</g>
<g>
	<line class="st1" x1="263.48" y1="377.61" x2="285.09" y2="377.61"/>
	<line class="st1" x1="264.08" y1="398.62" x2="264.08" y2="377.01"/>
	<line class="st1" x1="332.52" y1="377.61" x2="310.91" y2="377.61"/>
	<line class="st1" x1="331.92" y1="398.62" x2="331.92" y2="377.01"/>
	<line class="st1" x1="263.48" y1="464.39" x2="285.09" y2="464.39"/>
	<line class="st1" x1="264.08" y1="443.38" x2="264.08" y2="464.99"/>
	<line class="st1" x1="332.52" y1="464.39" x2="310.91" y2="464.39"/>
	<line class="st1" x1="331.92" y1="443.38" x2="331.92" y2="464.99"/>
</g>
</svg>
