<?xml version="1.0" encoding="utf-8"?>
<!-- Generator: Adobe Illustrator 26.2.1, SVG Export Plug-In . SVG Version: 6.00 Build 0)  -->
<svg version="1.1" id="Layer_1" xmlns="http://www.w3.org/2000/svg" xmlns:xlink="http://www.w3.org/1999/xlink" x="0px" y="0px"
	 viewBox="0 0 597 360" style="enable-background:new 0 0 597 360;" xml:space="preserve">
<style type="text/css">
	.st0{fill:#FFFFFF;}
</style>
<g>
	<path class="st0" d="M136.43,170.83c-3.71,0-7.21-0.75-10.51-2.25c-3.3-1.5-6.2-3.58-8.7-6.24s-4.44-5.76-5.84-9.3
		c-1.4-3.54-2.09-7.38-2.09-11.52c0-3.92,0.7-7.61,2.09-11.08c1.4-3.46,3.36-6.51,5.88-9.14c2.52-2.63,5.48-4.7,8.86-6.2
		c3.38-1.5,7.06-2.26,11.04-2.26c5.37,0,9.97,1.14,13.81,3.42c3.84,2.28,6.73,5.3,8.66,9.06l-8.3,6.12
		c-1.45-2.85-3.48-5.02-6.08-6.52c-2.61-1.5-5.44-2.26-8.5-2.26c-2.42,0-4.62,0.51-6.6,1.53c-1.99,1.02-3.71,2.42-5.16,4.19
		c-1.45,1.77-2.57,3.81-3.34,6.12c-0.78,2.31-1.17,4.75-1.17,7.33c0,2.74,0.42,5.26,1.25,7.57c0.83,2.31,2.01,4.32,3.54,6.04
		c1.53,1.72,3.31,3.08,5.36,4.07c2.04,1,4.3,1.49,6.77,1.49c2.9,0,5.68-0.75,8.34-2.25c2.66-1.5,5.14-3.71,7.45-6.61v10.96
		C148.41,168.26,142.82,170.83,136.43,170.83z M152.38,149.17h-11.52v-8.14h20.7v29.4h-9.18V149.17z"/>
</g>
<g>
	<path class="st0" d="M205.95,160.68v9.75h-39.71v-57.19h38.99v9.75h-27.87v13.77h24.08v9.02h-24.08v14.9H205.95z"/>
	<path class="st0" d="M231.64,170.83c-4.19,0-7.99-0.8-11.4-2.42c-3.41-1.61-6.34-3.8-8.78-6.57c-2.44-2.76-4.34-5.88-5.68-9.34
		c-1.34-3.46-2.01-7.02-2.01-10.67c0-3.81,0.71-7.45,2.13-10.91c1.42-3.46,3.38-6.55,5.88-9.26c2.5-2.71,5.45-4.86,8.86-6.44
		c3.41-1.58,7.15-2.38,11.24-2.38c4.13,0,7.91,0.83,11.32,2.5c3.41,1.67,6.32,3.89,8.74,6.69c2.42,2.79,4.3,5.91,5.64,9.34
		c1.34,3.44,2.01,6.98,2.01,10.63c0,3.76-0.7,7.37-2.09,10.83c-1.4,3.46-3.34,6.55-5.84,9.26c-2.5,2.71-5.45,4.85-8.86,6.4
		C239.39,170.06,235.67,170.83,231.64,170.83z M215.05,141.84c0,2.47,0.38,4.86,1.13,7.17c0.75,2.31,1.84,4.36,3.26,6.16
		c1.42,1.8,3.17,3.22,5.24,4.27c2.07,1.05,4.42,1.57,7.05,1.57c2.68,0,5.07-0.55,7.17-1.65c2.09-1.1,3.84-2.58,5.24-4.43
		c1.4-1.85,2.46-3.92,3.18-6.2c0.73-2.28,1.09-4.58,1.09-6.89c0-2.47-0.39-4.85-1.17-7.13c-0.78-2.28-1.88-4.32-3.3-6.12
		c-1.42-1.8-3.17-3.22-5.24-4.27c-2.07-1.05-4.39-1.57-6.97-1.57c-2.74,0-5.14,0.55-7.21,1.65c-2.07,1.1-3.8,2.56-5.2,4.39
		c-1.4,1.83-2.46,3.87-3.18,6.12C215.41,137.16,215.05,139.47,215.05,141.84z"/>
	<path class="st0" d="M263.38,170.43v-57.19h25.29c2.63,0,5.06,0.54,7.29,1.61c2.23,1.08,4.16,2.53,5.8,4.35
		c1.64,1.83,2.9,3.87,3.79,6.12c0.89,2.26,1.33,4.57,1.33,6.93c0,2.42-0.42,4.74-1.25,6.97c-0.83,2.23-2.03,4.18-3.58,5.84
		c-1.56,1.67-3.38,2.95-5.48,3.87l13.05,21.51h-12.24l-11.76-19.17H274.5v19.17H263.38z M274.5,141.51h13.93
		c1.4,0,2.63-0.42,3.71-1.25c1.07-0.83,1.93-1.95,2.58-3.34s0.97-2.95,0.97-4.67c0-1.83-0.38-3.42-1.13-4.79
		c-0.75-1.37-1.71-2.46-2.86-3.26c-1.16-0.81-2.4-1.21-3.75-1.21H274.5V141.51z"/>
	<path class="st0" d="M333.94,170.83c-3.71,0-7.21-0.75-10.51-2.25c-3.3-1.5-6.2-3.58-8.7-6.24s-4.44-5.76-5.84-9.3
		c-1.4-3.54-2.09-7.38-2.09-11.52c0-3.92,0.7-7.61,2.09-11.08c1.4-3.46,3.36-6.51,5.88-9.14c2.52-2.63,5.48-4.7,8.86-6.2
		c3.38-1.5,7.06-2.26,11.04-2.26c5.37,0,9.97,1.14,13.81,3.42c3.84,2.28,6.73,5.3,8.66,9.06l-8.3,6.12
		c-1.45-2.85-3.48-5.02-6.08-6.52c-2.61-1.5-5.44-2.26-8.5-2.26c-2.42,0-4.62,0.51-6.6,1.53c-1.99,1.02-3.71,2.42-5.16,4.19
		c-1.45,1.77-2.57,3.81-3.34,6.12c-0.78,2.31-1.17,4.75-1.17,7.33c0,2.74,0.42,5.26,1.25,7.57c0.83,2.31,2.01,4.32,3.54,6.04
		c1.53,1.72,3.31,3.08,5.36,4.07c2.04,1,4.29,1.49,6.77,1.49c2.9,0,5.68-0.75,8.34-2.25c2.66-1.5,5.14-3.71,7.45-6.61v10.96
		C345.92,168.26,340.33,170.83,333.94,170.83z M349.89,149.17h-11.52v-8.14h20.7v29.4h-9.18V149.17z"/>
</g>
<g>
	<path class="st0" d="M363.59,170.43v-57.19h11.12v57.19H363.59z"/>
	<path class="st0" d="M396.53,113.24h11.28l21.02,57.19h-11.44l-4.75-14.26h-21l-4.78,14.26h-11.44L396.53,113.24z M410.04,148.36
		l-7.87-23.6l-7.91,23.6H410.04z"/>
</g>
<g>
	<path class="st0" d="M137.08,230.84c-4.19,0-7.99-0.8-11.4-2.42c-3.41-1.61-6.34-3.8-8.78-6.57c-2.44-2.76-4.34-5.88-5.68-9.34
		c-1.34-3.46-2.01-7.02-2.01-10.67c0-3.81,0.71-7.45,2.13-10.91c1.42-3.46,3.38-6.55,5.88-9.26c2.5-2.71,5.45-4.86,8.86-6.44
		c3.41-1.58,7.15-2.38,11.24-2.38c4.13,0,7.91,0.83,11.32,2.5c3.41,1.67,6.32,3.89,8.74,6.69c2.42,2.79,4.3,5.91,5.64,9.34
		c1.34,3.44,2.01,6.98,2.01,10.63c0,3.76-0.7,7.37-2.09,10.83c-1.4,3.46-3.34,6.55-5.84,9.26c-2.5,2.71-5.45,4.85-8.86,6.4
		C144.82,230.07,141.11,230.84,137.08,230.84z M120.48,201.85c0,2.47,0.38,4.86,1.13,7.17c0.75,2.31,1.84,4.36,3.26,6.16
		c1.42,1.8,3.17,3.22,5.24,4.27c2.07,1.05,4.42,1.57,7.05,1.57c2.68,0,5.07-0.55,7.17-1.65c2.09-1.1,3.84-2.58,5.24-4.43
		c1.4-1.85,2.46-3.92,3.18-6.2c0.73-2.28,1.09-4.58,1.09-6.89c0-2.47-0.39-4.85-1.17-7.13c-0.78-2.28-1.88-4.32-3.3-6.12
		c-1.42-1.8-3.17-3.22-5.24-4.27c-2.07-1.05-4.39-1.57-6.97-1.57c-2.74,0-5.14,0.55-7.21,1.65c-2.07,1.1-3.8,2.56-5.2,4.39
		c-1.4,1.83-2.46,3.87-3.18,6.12C120.85,197.17,120.48,199.48,120.48,201.85z"/>
</g>
<g>
	<path class="st0" d="M182.11,173.25h11.28l21.02,57.19h-11.44l-4.75-14.26h-21l-4.78,14.26H161L182.11,173.25z M195.61,208.37
		l-7.87-23.6l-7.91,23.6H195.61z"/>
	<path class="st0" d="M215.86,230.44v-57.19h11.12v27.18l24-27.26h12.24l-21.91,25.41l23.28,31.86h-12.57l-17.8-24.68l-7.25,7.58
		v17.1H215.86z"/>
</g>
<g>
	<path class="st0" d="M278.87,230.54V209.1h9.09c0.99,0,1.89,0.2,2.72,0.6c0.83,0.4,1.55,0.95,2.16,1.63
		c0.61,0.68,1.09,1.45,1.43,2.29c0.34,0.85,0.51,1.71,0.51,2.6c0,1.21-0.28,2.36-0.85,3.44c-0.56,1.09-1.34,1.97-2.33,2.66
		c-0.99,0.68-2.16,1.03-3.5,1.03h-5.07v7.19H278.87z M283.03,219.7h4.83c0.5,0,0.96-0.14,1.36-0.42c0.4-0.28,0.72-0.69,0.97-1.22
		c0.24-0.53,0.36-1.14,0.36-1.83c0-0.75-0.14-1.38-0.41-1.9s-0.62-0.92-1.06-1.18c-0.43-0.26-0.9-0.39-1.4-0.39h-4.65V219.7z"/>
	<path class="st0" d="M301.39,209.1h4.23l7.88,21.44h-4.29l-1.78-5.34h-7.87l-1.79,5.34h-4.29L301.39,209.1z M306.46,222.27
		l-2.95-8.85l-2.96,8.85H306.46z"/>
	<path class="st0" d="M315.25,230.54V209.1h9.48c0.99,0,1.9,0.2,2.73,0.6c0.84,0.4,1.56,0.95,2.17,1.63
		c0.61,0.68,1.09,1.45,1.42,2.29s0.5,1.71,0.5,2.6c0,0.91-0.16,1.78-0.47,2.61c-0.31,0.84-0.76,1.57-1.34,2.19
		c-0.58,0.62-1.27,1.11-2.05,1.45l4.89,8.06H328l-4.41-7.19h-4.17v7.19H315.25z M319.42,219.7h5.22c0.52,0,0.99-0.16,1.39-0.47
		c0.4-0.31,0.72-0.73,0.97-1.25c0.24-0.52,0.36-1.11,0.36-1.75c0-0.68-0.14-1.28-0.42-1.8c-0.28-0.51-0.64-0.92-1.07-1.22
		c-0.43-0.3-0.9-0.45-1.4-0.45h-5.04V219.7z"/>
	<path class="st0" d="M350.52,212.75h-6.85v17.79h-4.14v-17.79h-6.85v-3.65h17.85V212.75z"/>
	<path class="st0" d="M356.78,216.77v13.77h-4.17V209.1h3.32l11.08,14.13v-14.1h4.17v21.41h-3.47L356.78,216.77z"/>
	<path class="st0" d="M389.96,226.89v3.65h-14.89V209.1h14.62v3.65h-10.45v5.16h9.03v3.38h-9.03v5.59H389.96z"/>
	<path class="st0" d="M392.65,230.54V209.1h9.48c0.99,0,1.9,0.2,2.73,0.6c0.84,0.4,1.56,0.95,2.17,1.63
		c0.61,0.68,1.09,1.45,1.42,2.29s0.5,1.71,0.5,2.6c0,0.91-0.16,1.78-0.47,2.61c-0.31,0.84-0.76,1.57-1.34,2.19
		c-0.58,0.62-1.27,1.11-2.05,1.45l4.89,8.06h-4.59l-4.41-7.19h-4.17v7.19H392.65z M396.82,219.7h5.22c0.52,0,0.99-0.16,1.39-0.47
		c0.4-0.31,0.72-0.73,0.97-1.25c0.24-0.52,0.36-1.11,0.36-1.75c0-0.68-0.14-1.28-0.42-1.8c-0.28-0.51-0.64-0.92-1.07-1.22
		c-0.43-0.3-0.9-0.45-1.4-0.45h-5.04V219.7z"/>
	<path class="st0" d="M424.93,214.72c-0.14-0.14-0.4-0.33-0.77-0.57c-0.37-0.24-0.83-0.47-1.36-0.69c-0.53-0.22-1.11-0.42-1.74-0.59
		s-1.26-0.26-1.9-0.26c-1.13,0-1.98,0.21-2.55,0.63c-0.57,0.42-0.86,1.01-0.86,1.77c0,0.58,0.18,1.04,0.54,1.38s0.91,0.63,1.63,0.87
		c0.72,0.24,1.63,0.5,2.72,0.78c1.41,0.34,2.63,0.76,3.67,1.25c1.04,0.49,1.83,1.13,2.39,1.92c0.55,0.79,0.83,1.84,0.83,3.14
		c0,1.14-0.21,2.12-0.63,2.93c-0.42,0.81-1.01,1.47-1.75,1.97c-0.75,0.5-1.59,0.87-2.54,1.1c-0.95,0.23-1.95,0.35-3.02,0.35
		s-2.13-0.11-3.2-0.33c-1.07-0.22-2.09-0.54-3.08-0.95c-0.99-0.41-1.89-0.91-2.72-1.49l1.84-3.59c0.18,0.18,0.5,0.42,0.97,0.71
		s1.03,0.58,1.69,0.88c0.66,0.29,1.39,0.54,2.17,0.74s1.58,0.3,2.39,0.3c1.13,0,1.98-0.19,2.57-0.57c0.58-0.38,0.88-0.92,0.88-1.61
		c0-0.64-0.23-1.14-0.69-1.5c-0.46-0.36-1.11-0.68-1.93-0.95c-0.83-0.27-1.8-0.57-2.93-0.89c-1.35-0.38-2.48-0.81-3.38-1.28
		c-0.91-0.47-1.58-1.07-2.02-1.79c-0.44-0.72-0.66-1.62-0.66-2.71c0-1.46,0.35-2.69,1.04-3.68c0.69-0.99,1.64-1.74,2.82-2.25
		s2.51-0.77,3.96-0.77c1.01,0,1.96,0.11,2.85,0.33c0.9,0.22,1.74,0.51,2.52,0.88s1.49,0.75,2.11,1.18L424.93,214.72z"/>
</g>
</svg>
