<svg xmlns="http://www.w3.org/2000/svg" width="69.413" height="88.352" viewBox="0 0 69.413 88.352">
  <g id="GeorgiaOak_GO_Cream" transform="translate(-263.293 -376.824)">
    <g id="Group_22707" data-name="Group 22707">
      <path id="Path_15125" data-name="Path 15125" d="M306.05,410.51h-6.07v-4.2h10.91v15.18h-4.84Zm-8.41,11.18a13.553,13.553,0,0,1-5.54-1.16,14.445,14.445,0,0,1-4.59-3.22,14.856,14.856,0,0,1-3.08-4.8,15.706,15.706,0,0,1-1.1-5.95,15.016,15.016,0,0,1,1.1-5.72,14.63,14.63,0,0,1,7.77-7.92,15.552,15.552,0,0,1,13.1.61,11.647,11.647,0,0,1,4.56,4.68l-4.37,3.16a7.98,7.98,0,0,0-3.21-3.37,8.909,8.909,0,0,0-4.48-1.16,7.609,7.609,0,0,0-3.48.79,8.613,8.613,0,0,0-2.72,2.16,10.056,10.056,0,0,0-1.76,3.16,11.525,11.525,0,0,0-.62,3.78,11.22,11.22,0,0,0,.66,3.91,9.439,9.439,0,0,0,1.87,3.12,9.043,9.043,0,0,0,2.82,2.1,8.225,8.225,0,0,0,3.57.77,8.982,8.982,0,0,0,4.39-1.16,13.729,13.729,0,0,0,3.93-3.41v5.65a11.784,11.784,0,0,1-8.82,3.98" fill="#eae9e8"/>
      <path id="Path_15126" data-name="Path 15126" d="M289.23,437.7a11.52,11.52,0,0,0,.6,3.7,10.175,10.175,0,0,0,1.72,3.18,8.131,8.131,0,0,0,2.76,2.2,8.256,8.256,0,0,0,3.71.81,8.1,8.1,0,0,0,3.78-.85,8.188,8.188,0,0,0,2.76-2.29,10.421,10.421,0,0,0,1.68-3.2,11.521,11.521,0,0,0,.57-3.56,11.143,11.143,0,0,0-.61-3.68,10.444,10.444,0,0,0-1.74-3.16,8.55,8.55,0,0,0-10.23-2.16,8.277,8.277,0,0,0-2.74,2.27,10.216,10.216,0,0,0-1.68,3.16,11.229,11.229,0,0,0-.58,3.58m8.75,14.97a14.016,14.016,0,0,1-10.64-4.64,15.764,15.764,0,0,1-2.99-4.82,14.789,14.789,0,0,1-1.06-5.51,14.541,14.541,0,0,1,1.12-5.63,15.8,15.8,0,0,1,3.1-4.78,14.743,14.743,0,0,1,4.67-3.33,14.1,14.1,0,0,1,5.92-1.23,13.669,13.669,0,0,1,5.97,1.29,14.387,14.387,0,0,1,4.61,3.45,16.562,16.562,0,0,1,2.97,4.82,14.75,14.75,0,0,1-.04,11.08,15.555,15.555,0,0,1-3.08,4.78,14.354,14.354,0,0,1-4.67,3.3,14.009,14.009,0,0,1-5.88,1.22" fill="#eae9e8"/>
    </g>
    <g id="Group_22708" data-name="Group 22708">
      <line id="Line_124" data-name="Line 124" x2="21.61" transform="translate(263.48 377.61)" fill="none" stroke="#eae9e8" stroke-width="1.573"/>
      <line id="Line_125" data-name="Line 125" y1="21.61" transform="translate(264.08 377.01)" fill="none" stroke="#eae9e8" stroke-width="1.573"/>
      <line id="Line_126" data-name="Line 126" x1="21.61" transform="translate(310.91 377.61)" fill="none" stroke="#eae9e8" stroke-width="1.573"/>
      <line id="Line_127" data-name="Line 127" y1="21.61" transform="translate(331.92 377.01)" fill="none" stroke="#eae9e8" stroke-width="1.573"/>
      <line id="Line_128" data-name="Line 128" x2="21.61" transform="translate(263.48 464.39)" fill="none" stroke="#eae9e8" stroke-width="1.573"/>
      <line id="Line_129" data-name="Line 129" y2="21.61" transform="translate(264.08 443.38)" fill="none" stroke="#eae9e8" stroke-width="1.573"/>
      <line id="Line_130" data-name="Line 130" x1="21.61" transform="translate(310.91 464.39)" fill="none" stroke="#eae9e8" stroke-width="1.573"/>
      <line id="Line_131" data-name="Line 131" y2="21.61" transform="translate(331.92 443.38)" fill="none" stroke="#eae9e8" stroke-width="1.573"/>
    </g>
  </g>
</svg>
