<svg xmlns="http://www.w3.org/2000/svg" width="11.434" height="11.434" viewBox="0 0 11.434 11.434">
  <g id="InstaRing" transform="translate(-0.003 -0.003)">
    <path id="Path_15131" data-name="Path 15131" d="M5.72,11.22h0a5.5,5.5,0,1,1,5.5-5.5A5.5,5.5,0,0,1,5.72,11.22Z" fill="none" stroke="#605c68" stroke-miterlimit="10" stroke-width="0.434"/>
    <path id="Path_15132" data-name="Path 15132" d="M5.72,2.7c-.82,0-.92,0-1.24.02a2.489,2.489,0,0,0-.74.14,1.4,1.4,0,0,0-.53.35,1.575,1.575,0,0,0-.35.53,2.26,2.26,0,0,0-.14.74c-.01.32-.02.42-.02,1.24s0,.92.02,1.24a2.26,2.26,0,0,0,.14.74,1.4,1.4,0,0,0,.35.53,1.483,1.483,0,0,0,.53.35,2.489,2.489,0,0,0,.74.14c.32.01.42.02,1.24.02s.92,0,1.24-.02a2.629,2.629,0,0,0,.74-.14,1.575,1.575,0,0,0,.53-.35,1.483,1.483,0,0,0,.35-.53,2.558,2.558,0,0,0,.14-.74c.01-.32.02-.42.02-1.24s0-.92-.02-1.24a2.558,2.558,0,0,0-.14-.74,1.585,1.585,0,0,0-.88-.88,2.629,2.629,0,0,0-.74-.14c-.32-.01-.42-.02-1.24-.02m0,.55c.81,0,.9,0,1.22.02a1.685,1.685,0,0,1,.56.1.93.93,0,0,1,.57.57,1.685,1.685,0,0,1,.1.56c.02.32.02.41.02,1.22s0,.9-.02,1.22a1.685,1.685,0,0,1-.1.56.93.93,0,0,1-.57.57,1.685,1.685,0,0,1-.56.1c-.32.02-.41.02-1.22.02s-.9,0-1.22-.02a1.685,1.685,0,0,1-.56-.1.93.93,0,0,1-.57-.57,1.685,1.685,0,0,1-.1-.56c-.02-.32-.02-.41-.02-1.22s0-.9.02-1.22a1.685,1.685,0,0,1,.1-.56.988.988,0,0,1,.22-.35.907.907,0,0,1,.35-.22,1.685,1.685,0,0,1,.56-.1c.32-.02.41-.02,1.22-.02" fill="#605c68"/>
    <path id="Path_15133" data-name="Path 15133" d="M5.72,6.73A1.01,1.01,0,1,1,6.73,5.72,1.007,1.007,0,0,1,5.72,6.73m0-2.56A1.55,1.55,0,1,0,7.27,5.72,1.545,1.545,0,0,0,5.72,4.17" fill="#605c68"/>
    <path id="Path_15134" data-name="Path 15134" d="M7.69,4.11a.36.36,0,1,1-.36-.36.359.359,0,0,1,.36.36" fill="#605c68"/>
  </g>
</svg>
