<svg xmlns="http://www.w3.org/2000/svg" width="11.434" height="11.434" viewBox="0 0 11.434 11.434">
  <g id="LinkRing" transform="translate(0.077 -0.003)">
    <g id="Group_22712" data-name="Group 22712">
      <path id="Path_15135" data-name="Path 15135" d="M5.64,11.22h0a5.5,5.5,0,1,1,5.5-5.5A5.5,5.5,0,0,1,5.64,11.22Z" fill="none" stroke="#605c68" stroke-miterlimit="10" stroke-width="0.434"/>
    </g>
    <rect id="Rectangle_9659" data-name="Rectangle 9659" width="1.14" height="3.68" transform="translate(3.15 4.49)" fill="#605c68"/>
    <g id="Group_22713" data-name="Group 22713">
      <path id="Path_15136" data-name="Path 15136" d="M3.71,4.01a.68.68,0,1,0-.67-.68.672.672,0,0,0,.67.68" fill="#605c68"/>
      <path id="Path_15137" data-name="Path 15137" d="M6.11,6.24c0-.52.24-.83.69-.83.42,0,.62.3.62.83V8.17H8.55V5.84A1.282,1.282,0,0,0,7.21,4.38a1.286,1.286,0,0,0-1.11.61v-.5H5.01V8.17H6.1V6.24Z" fill="#605c68"/>
    </g>
  </g>
</svg>
