<?xml version="1.0" encoding="utf-8"?>
<!-- Generator: Adobe Illustrator 26.2.1, SVG Export Plug-In . SVG Version: 6.00 Build 0)  -->
<svg version="1.1" id="Layer_1" xmlns="http://www.w3.org/2000/svg" xmlns:xlink="http://www.w3.org/1999/xlink" x="0px" y="0px"
	 viewBox="0 0 11.44 11.44" style="enable-background:new 0 0 11.44 11.44;" xml:space="preserve">
<style type="text/css">
	.st0{fill:none;stroke:#605C68;stroke-width:0.434;stroke-miterlimit:10;}
	.st1{fill:#605C68;}
</style>
<g>
	<path class="st0" d="M5.64,11.22L5.64,11.22c-3.04,0-5.5-2.46-5.5-5.5c0-3.04,2.46-5.5,5.5-5.5s5.5,2.46,5.5,5.5
		C11.15,8.76,8.68,11.22,5.64,11.22z"/>
</g>
<rect x="3.15" y="4.49" class="st1" width="1.14" height="3.68"/>
<g>
	<path class="st1" d="M3.71,4.01c0.37,0,0.67-0.3,0.67-0.68s-0.3-0.68-0.67-0.68s-0.67,0.3-0.67,0.68S3.34,4.01,3.71,4.01"/>
	<path class="st1" d="M6.11,6.24c0-0.52,0.24-0.83,0.69-0.83c0.42,0,0.62,0.3,0.62,0.83v1.93h1.13V5.84c0-0.99-0.56-1.46-1.34-1.46
		c-0.78,0-1.11,0.61-1.11,0.61v-0.5H5.01v3.68h1.09V6.24z"/>
</g>
</svg>
