<?xml version="1.0" encoding="utf-8"?>
<!-- Generator: Adobe Illustrator 26.3.1, SVG Export Plug-In . SVG Version: 6.00 Build 0)  -->
<svg version="1.1" id="Layer_1" xmlns="http://www.w3.org/2000/svg" xmlns:xlink="http://www.w3.org/1999/xlink" x="0px" y="0px"
	 viewBox="0 0 288 288" style="enable-background:new 0 0 288 288;" xml:space="preserve">
<style type="text/css">
	.st0{fill-rule:evenodd;clip-rule:evenodd;fill:#FFFFFF;}
</style>
<path class="st0" d="M146.09,108.41c19.66,0,35.59,15.93,35.59,35.59s-15.93,35.59-35.59,35.59s-35.59-15.93-35.59-35.59
	S126.43,108.41,146.09,108.41L146.09,108.41z M145.8,165.82c-4.12-6.03-12.64-17.11-14.66-22.79c-0.58-1.64-0.93-3.34-0.93-5.11
	c0-8.77,7.11-15.87,15.87-15.87s15.87,7.11,15.87,15.87c0,1.78-0.35,3.48-0.93,5.11c-2.01,5.69-10.54,16.77-14.66,22.79
	C146.23,166.02,145.94,166.02,145.8,165.82L145.8,165.82z M146.09,129.03c4.9,0,8.88,3.97,8.88,8.88c0,4.9-3.97,8.88-8.88,8.88
	c-4.9,0-8.88-3.97-8.88-8.88C137.21,133,141.18,129.03,146.09,129.03L146.09,129.03z"/>
</svg>
