<svg xmlns="http://www.w3.org/2000/svg" width="71.18" height="71.18" viewBox="0 0 71.18 71.18">
  <path id="LocationIcon" d="M146.09,108.41A35.59,35.59,0,1,1,110.5,144a35.585,35.585,0,0,1,35.59-35.59Zm-.29,57.41c-4.12-6.03-12.64-17.11-14.66-22.79a15.252,15.252,0,0,1-.93-5.11,15.87,15.87,0,1,1,31.74,0,15.162,15.162,0,0,1-.93,5.11c-2.01,5.69-10.54,16.77-14.66,22.79a.336.336,0,0,1-.56,0Zm.29-36.79a8.88,8.88,0,1,1-8.88,8.88,8.879,8.879,0,0,1,8.88-8.88Z" transform="translate(-110.5 -108.41)" fill="#fff" fill-rule="evenodd"/>
</svg>
