<svg id="MailIcon_1" xmlns="http://www.w3.org/2000/svg" width="11.2" height="7.71" viewBox="0 0 11.2 7.71">
  <path id="Path_15138" data-name="Path 15138" d="M1.04.45a.591.591,0,0,0-.59.59V6.67a.591.591,0,0,0,.59.59h9.12a.591.591,0,0,0,.59-.59V1.04a.591.591,0,0,0-.59-.59Zm9.12,7.26H1.04A1.046,1.046,0,0,1,0,6.67V1.04A1.046,1.046,0,0,1,1.04,0h9.12A1.046,1.046,0,0,1,11.2,1.04V6.67a1.046,1.046,0,0,1-1.04,1.04" fill="#615d69"/>
  <path id="Path_15139" data-name="Path 15139" d="M5.6,5.41a.591.591,0,0,1-.41-.16L.22.75A.224.224,0,0,1,.21.43.233.233,0,0,1,.53.41L5.5,4.92a.166.166,0,0,0,.21,0L10.68.41a.227.227,0,1,1,.3.34L6.01,5.25a.661.661,0,0,1-.41.16" fill="#615d69"/>
  <path id="Path_15140" data-name="Path 15140" d="M.48,7.48a.22.22,0,0,1-.15-.06A.224.224,0,0,1,.32,7.1L3.68,3.57a.226.226,0,0,1,.33.31L.64,7.41a.2.2,0,0,1-.16.07" fill="#615d69"/>
  <path id="Path_15141" data-name="Path 15141" d="M10.72,7.48a.2.2,0,0,1-.16-.07L7.19,3.88a.226.226,0,1,1,.33-.31L10.88,7.1a.233.233,0,0,1-.01.32.22.22,0,0,1-.15.06" fill="#615d69"/>
</svg>
