<?xml version="1.0" encoding="utf-8"?>
<!-- Generator: Adobe Illustrator 26.3.1, SVG Export Plug-In . SVG Version: 6.00 Build 0)  -->
<svg version="1.1" id="Layer_1" xmlns="http://www.w3.org/2000/svg" xmlns:xlink="http://www.w3.org/1999/xlink" x="0px" y="0px"
	 viewBox="0 0 288 288" style="enable-background:new 0 0 288 288;" xml:space="preserve">
<style type="text/css">
	.st0{fill-rule:evenodd;clip-rule:evenodd;fill:#FFFFFF;}
</style>
<path class="st0" d="M146.09,107.51c19.9,0,36.04,16.14,36.04,36.04c0,19.9-16.14,36.04-36.04,36.04s-36.04-16.14-36.04-36.04
	C110.05,123.65,126.18,107.51,146.09,107.51L146.09,107.51z M124.24,130.84l21.84,17.88l21.84-17.88v-1.87h-43.69V130.84
	L124.24,130.84z M124.24,156.18l12.18-11.55l-12.18-9.97V156.18L124.24,156.18z M155.84,144.55l12.09,11.46v-21.36L155.84,144.55
	L155.84,144.55z M165.87,158.13l-12.33-11.7l-7.46,6.1l-7.37-6.03l-12.25,11.62H165.87L165.87,158.13z"/>
</svg>
