<?xml version="1.0" encoding="utf-8"?>
<!-- Generator: Adobe Illustrator 26.2.1, SVG Export Plug-In . SVG Version: 6.00 Build 0)  -->
<svg version="1.1" id="Layer_1" xmlns="http://www.w3.org/2000/svg" xmlns:xlink="http://www.w3.org/1999/xlink" x="0px" y="0px"
	 viewBox="0 0 11.44 11.44" style="enable-background:new 0 0 11.44 11.44;" xml:space="preserve">
<style type="text/css">
	.st0{fill:#605C68;}
</style>
<g>
	<path class="st0" d="M2.7,1.16c-0.11,0-0.23,0.03-0.32,0.1L2.3,1.32C1.5,1.94,1.08,2.93,1.2,3.9c0.13,1.06,0.63,2.68,2.27,4.32
		c1.05,1.05,2.15,1.73,3.28,2.04c1.23,0.34,2.55-0.11,3.36-1.13l0.06-0.07c0.16-0.2,0.14-0.52-0.04-0.7L9.22,7.45
		c-0.2-0.2-0.56-0.2-0.76,0L8.44,7.46L7.74,8C7.4,8.26,6.98,8.36,6.57,8.27C4.84,7.88,3.82,6.03,3.36,4.96
		c-0.2-0.46-0.13-1,0.18-1.39l0.45-0.59c0.1-0.1,0.16-0.24,0.16-0.38S4.09,2.32,3.99,2.22L3.08,1.31C2.98,1.21,2.84,1.16,2.7,1.16
		 M7.58,10.82c-0.32,0-0.63-0.04-0.94-0.13c-1.21-0.33-2.38-1.05-3.48-2.16c-1.74-1.74-2.26-3.45-2.4-4.59
		C0.62,2.82,1.1,1.68,2.03,0.97L2.11,0.9C2.48,0.62,3.06,0.65,3.4,0.99L4.31,1.9C4.5,2.08,4.6,2.33,4.6,2.6
		c0,0.26-0.1,0.5-0.28,0.69L3.89,3.84C3.69,4.11,3.64,4.47,3.77,4.78c0.42,0.99,1.36,2.71,2.9,3.05c0.27,0.06,0.56-0.01,0.79-0.18
		l0.69-0.53c0.18-0.18,0.43-0.28,0.69-0.28c0.26,0,0.51,0.1,0.7,0.29l0.91,0.91c0.34,0.34,0.37,0.92,0.08,1.3l-0.06,0.07
		C9.75,10.32,8.68,10.82,7.58,10.82"/>
</g>
</svg>
