<svg xmlns="http://www.w3.org/2000/svg" width="71.18" height="71.18" viewBox="0 0 71.18 71.18">
  <path id="PhoneIcon" d="M146.09,108.41A35.59,35.59,0,1,1,110.5,144a35.585,35.585,0,0,1,35.59-35.59Zm-10.3,13.46h20.58a2.834,2.834,0,0,1,2.83,2.83v38.59a2.834,2.834,0,0,1-2.83,2.83H135.79a2.834,2.834,0,0,1-2.83-2.83V124.7a2.847,2.847,0,0,1,2.83-2.83Zm21.05,5.73v29.14H135.33V127.6Zm-10.75,31.42a2.32,2.32,0,1,1-2.32,2.32,2.322,2.322,0,0,1,2.32-2.32Z" transform="translate(-110.5 -108.41)" fill="#fff" fill-rule="evenodd"/>
</svg>
