<svg xmlns="http://www.w3.org/2000/svg" width="9.992" height="10.11" viewBox="0 0 9.992 10.11">
  <g id="PhoneIcon_1" transform="translate(-0.736 -0.71)">
    <path id="Path_15142" data-name="Path 15142" d="M2.7,1.16a.528.528,0,0,0-.32.1l-.08.06A2.85,2.85,0,0,0,1.2,3.9,7.4,7.4,0,0,0,3.47,8.22a7.513,7.513,0,0,0,3.28,2.04,3.21,3.21,0,0,0,3.36-1.13l.06-.07a.545.545,0,0,0-.04-.7l-.91-.91a.556.556,0,0,0-.76,0l-.02.01L7.74,8a1.414,1.414,0,0,1-1.17.27C4.84,7.88,3.82,6.03,3.36,4.96a1.369,1.369,0,0,1,.18-1.39l.45-.59a.531.531,0,0,0,0-.76l-.91-.91a.537.537,0,0,0-.38-.15m4.88,9.66a3.333,3.333,0,0,1-.94-.13A7.869,7.869,0,0,1,3.16,8.53,7.807,7.807,0,0,1,.76,3.94,3.252,3.252,0,0,1,2.03.97L2.11.9A1.015,1.015,0,0,1,3.4.99l.91.91a.951.951,0,0,1,.29.7.993.993,0,0,1-.28.69l-.43.55a.963.963,0,0,0-.12.94c.42.99,1.36,2.71,2.9,3.05a.982.982,0,0,0,.79-.18l.69-.53a.99.99,0,0,1,1.39.01l.91.91a1.014,1.014,0,0,1,.08,1.3l-.06.07a3.685,3.685,0,0,1-2.89,1.41" fill="#605c68"/>
  </g>
</svg>
