<?xml version="1.0" encoding="utf-8"?>
<!-- Generator: Adobe Illustrator 26.2.1, SVG Export Plug-In . SVG Version: 6.00 Build 0)  -->
<svg version="1.1" id="Layer_1" xmlns="http://www.w3.org/2000/svg" xmlns:xlink="http://www.w3.org/1999/xlink" x="0px" y="0px"
	 viewBox="0 0 140.08 140.08" style="enable-background:new 0 0 140.08 140.08;" xml:space="preserve">
<style type="text/css">
	.st0{fill:none;stroke:#007B3E;stroke-width:2.443;}
	.st1{fill:none;stroke:#007B3E;stroke-width:1.905;stroke-miterlimit:10;}
</style>
<g>
	<circle class="st0" cx="70.04" cy="70.04" r="68.82"/>
	<path class="st1" d="M53.19,54.01h35.46 M53.19,46.91h35.46 M85.1,68.19H56.73c-1.96,0-3.55-1.59-3.55-3.54V43.37
		c0-1.96,1.59-3.55,3.55-3.55H85.1c1.96,0,3.55,1.59,3.55,3.55v21.27C88.65,66.6,87.06,68.19,85.1,68.19z M58.51,101.87h21.27
		 M92.19,101.87c0,3.92-3.17,7.09-7.09,7.09s-7.09-3.18-7.09-7.09s3.18-7.09,7.09-7.09S92.19,97.96,92.19,101.87z M58.51,101.87
		c0,3.92-3.17,7.09-7.09,7.09c-3.92,0-7.09-3.18-7.09-7.09s3.17-7.09,7.09-7.09C55.33,94.78,58.51,97.96,58.51,101.87z M44.32,54.01
		v-7.09H33.69 M93.96,54.01h7.09l-7.09,31.91H44.32V54.01h3.55"/>
</g>
</svg>
