<?xml version="1.0" encoding="utf-8"?>
<!-- Generator: Adobe Illustrator 26.2.1, SVG Export Plug-In . SVG Version: 6.00 Build 0)  -->
<svg version="1.1" id="Layer_1" xmlns="http://www.w3.org/2000/svg" xmlns:xlink="http://www.w3.org/1999/xlink" x="0px" y="0px"
	 viewBox="0 0 140.08 140.08" style="enable-background:new 0 0 140.08 140.08;" xml:space="preserve">
<style type="text/css">
	.st0{fill:none;stroke:#007B3E;stroke-width:2.443;}
	.st1{fill:none;stroke:#007B3E;stroke-width:2.34;stroke-miterlimit:10;}
</style>
<circle class="st0" cx="70.04" cy="70.04" r="68.82"/>
<path class="st1" d="M102.97,51.87v52.58 M89.83,63.37v41.08 M76.68,71.59v32.86 M63.54,83.09v21.36 M50.39,74.87v29.58
	 M37.25,83.09v21.36 M32.32,104.45h75.58 M91.47,51.87l9.86-8.22 M79.97,60.09l6.57-4.93 M65.18,71.59l9.86-8.22 M53.68,66.66
	l6.57,4.93 M38.89,71.59l8.22-4.93 M106.26,42.01c0,1.82-1.47,3.29-3.29,3.29s-3.29-1.47-3.29-3.29c0-1.81,1.47-3.29,3.29-3.29
	S106.26,40.2,106.26,42.01z M93.11,53.51c0,1.82-1.47,3.29-3.29,3.29s-3.29-1.47-3.29-3.29c0-1.82,1.47-3.29,3.29-3.29
	S93.11,51.7,93.11,53.51z M79.97,61.73c0,1.82-1.47,3.29-3.29,3.29s-3.29-1.47-3.29-3.29s1.47-3.29,3.29-3.29
	S79.97,59.91,79.97,61.73z M66.82,73.23c0,1.82-1.47,3.29-3.29,3.29c-1.82,0-3.29-1.47-3.29-3.29s1.47-3.29,3.29-3.29
	C65.35,69.95,66.82,71.42,66.82,73.23z M53.68,65.02c0,1.82-1.47,3.29-3.29,3.29s-3.29-1.47-3.29-3.29c0-1.81,1.47-3.29,3.29-3.29
	S53.68,63.2,53.68,65.02z M40.53,73.23c0,1.82-1.47,3.29-3.29,3.29s-3.29-1.47-3.29-3.29s1.47-3.29,3.29-3.29
	S40.53,71.42,40.53,73.23z"/>
</svg>
