<svg xmlns="http://www.w3.org/2000/svg" width="140.083" height="140.083" viewBox="0 0 140.083 140.083">
  <g id="RingHomeServ" transform="translate(0.001 0.002)">
    <circle id="Ellipse_568" data-name="Ellipse 568" cx="68.82" cy="68.82" r="68.82" transform="translate(1.22 1.22)" fill="none" stroke="#007b3e" stroke-width="2.443"/>
    <path id="Path_15148" data-name="Path 15148" d="M64.18,80.73l3.91,3.91,9.78-9.78m7.81,5.87A15.64,15.64,0,1,1,70.04,65.09,15.637,15.637,0,0,1,85.68,80.73ZM111.1,63.8,75.57,28.28a7.828,7.828,0,0,0-11.06,0L28.99,63.8m54.74,44.3H44.63a7.819,7.819,0,0,1-7.82-7.82V70.95a7.819,7.819,0,0,1,2.29-5.53L67.28,37.24a3.905,3.905,0,0,1,5.53,0l28.18,28.18a7.819,7.819,0,0,1,2.29,5.53v29.32a7.819,7.819,0,0,1-7.82,7.82H83.73Z" fill="none" stroke="#007b3e" stroke-miterlimit="10" stroke-width="2.34"/>
  </g>
</svg>
