<svg xmlns="http://www.w3.org/2000/svg" width="140.083" height="140.083" viewBox="0 0 140.083 140.083">
  <g id="RingManufac" transform="translate(0.002 0.002)">
    <circle id="Ellipse_569" data-name="Ellipse 569" cx="68.82" cy="68.82" r="68.82" transform="translate(1.22 1.22)" fill="none" stroke="#007b3e" stroke-width="2.443"/>
    <path id="Path_15149" data-name="Path 15149" d="M40.04,84.54h60m-30-22.5v-25m-15,11.57a32.521,32.521,0,0,0-22.5,30.93v2.5l-5,5v7.5a2.5,2.5,0,0,0,2.5,2.5h80a2.5,2.5,0,0,0,2.5-2.5v-7.5l-5-5v-2.5a32.512,32.512,0,0,0-22.5-30.93m0,8.43v-15a5,5,0,0,0-5-5h-20a5,5,0,0,0-5,5v15" fill="none" stroke="#007b3e" stroke-linecap="round" stroke-linejoin="round" stroke-miterlimit="10" stroke-width="2.34"/>
  </g>
</svg>
