<svg id="RingProcess" xmlns="http://www.w3.org/2000/svg" xmlns:xlink="http://www.w3.org/1999/xlink" width="137.641" height="137.641" viewBox="0 0 137.641 137.641">
  <defs>
    <clipPath id="clip-path">
      <rect id="Rectangle_9665" data-name="Rectangle 9665" width="137.641" height="137.641"/>
    </clipPath>
  </defs>
  <g id="Group_22720" data-name="Group 22720" clip-path="url(#clip-path)">
    <ellipse id="Ellipse_571" data-name="Ellipse 571" cx="67.617" cy="67.617" rx="67.617" ry="67.617" transform="translate(1.204 1.204)" fill="none" stroke="#007b3e" stroke-width="2.214"/>
  </g>
  <g id="Group_22721" data-name="Group 22721" clip-path="url(#clip-path)">
    <path id="Path_15151" data-name="Path 15151" d="M66.05,96.069v6.995l-3.5-3.5Zm6.995-62.259a33.255,33.255,0,0,1-7.006,65.762m-1.746-63V29.58l3.5,3.5ZM57.3,98.4A33.25,33.25,0,0,1,66.05,33.072m0,52.5V78.576m0-24.509V47.062M57.3,73.317v3.5a1.745,1.745,0,0,0,1.746,1.746h14a1.745,1.745,0,0,0,1.746-1.746V72.557a1.748,1.748,0,0,0-.846-1.5l-15.8-9.478a1.737,1.737,0,0,1-.846-1.5V55.824a1.745,1.745,0,0,1,1.746-1.746h14a1.745,1.745,0,0,1,1.746,1.746v3.492" transform="translate(2.771 2.499)" fill="none" stroke="#007b3e" stroke-miterlimit="10" stroke-width="2.12"/>
  </g>
</svg>
