<?xml version="1.0" encoding="utf-8"?>
<!-- Generator: Adobe Illustrator 26.2.1, SVG Export Plug-In . SVG Version: 6.00 Build 0)  -->
<svg version="1.1" id="Layer_1" xmlns="http://www.w3.org/2000/svg" xmlns:xlink="http://www.w3.org/1999/xlink" x="0px" y="0px"
	 viewBox="0 0 126.91 126.91" style="enable-background:new 0 0 126.91 126.91;" xml:space="preserve">
<style type="text/css">
	.st0{clip-path:url(#SVGID_00000060023010510173432700000002919824901442865563_);fill:none;stroke:#007B3E;stroke-width:2.214;}
	
		.st1{clip-path:url(#SVGID_00000060023010510173432700000002919824901442865563_);fill:none;stroke:#007B3E;stroke-width:2.12;stroke-linecap:round;stroke-linejoin:round;stroke-miterlimit:10;}
</style>
<g>
	<defs>
		<rect id="SVGID_1_" x="0" y="0" width="126.92" height="126.92"/>
	</defs>
	<clipPath id="SVGID_00000134250040587832114950000017406709279089914286_">
		<use xlink:href="#SVGID_1_"  style="overflow:visible;"/>
	</clipPath>
	
		<circle style="clip-path:url(#SVGID_00000134250040587832114950000017406709279089914286_);fill:none;stroke:#007B3E;stroke-width:2.214;" cx="63.46" cy="63.46" r="62.35"/>
	
		<path style="clip-path:url(#SVGID_00000134250040587832114950000017406709279089914286_);fill:none;stroke:#007B3E;stroke-width:2.12;stroke-linecap:round;stroke-linejoin:round;stroke-miterlimit:10;" d="
		M36.95,76.59l1.63-1.63c1.51-1.51,3.96-1.51,5.47,0l0.52,0.52c1.51,1.51,1.51,3.96,0,5.47l-1.63,1.63c-1.51,1.51-3.96,1.51-5.47,0
		l-0.52-0.53C35.44,80.55,35.44,78.1,36.95,76.59z M42.94,82.58l1.63-1.63c1.51-1.51,3.96-1.51,5.47,0l0.52,0.52
		c1.51,1.51,1.51,3.96,0,5.47l-1.63,1.63c-1.51,1.51-3.96,1.51-5.47,0l-0.52-0.52C41.43,86.54,41.43,84.09,42.94,82.58z
		 M48.94,88.57l1.63-1.63c1.51-1.51,3.96-1.51,5.47,0l0.52,0.52c1.51,1.51,1.51,3.96,0,5.47l-1.63,1.63c-1.51,1.51-3.96,1.51-5.47,0
		l-0.52-0.52C47.42,92.53,47.43,90.08,48.94,88.57z M54.93,94.56l1.63-1.63c1.51-1.51,3.96-1.51,5.47,0l0.52,0.52
		c1.51,1.51,1.51,3.96,0,5.47l-1.63,1.63c-1.51,1.51-3.96,1.51-5.47,0l-0.52-0.52C53.42,98.52,53.42,96.07,54.93,94.56z
		 M99.36,50.13l-8.4,8.4c0.7,2.81,1.1,10.88-3.58,15.56l-0.49,0.49 M82.46,33.23l-8.4,8.4c-2.81-0.7-10.88-1.1-15.56,3.58
		L48.16,55.54c-1.66,1.65-1.66,4.33,0,5.99c1.66,1.65,4.34,1.66,5.99,0l1.11-1.11l8.9-8.92 M56.96,92.59l-0.06-0.06 M44.98,80.61
		l-0.06-0.05 M27.55,51.2l8.4,8.4c-1.3,5.2-0.62,10.48,2.34,14.32l0.69,0.69 M50.97,86.6l-0.06-0.06 M69.02,92.67
		c1.66,1.66,1.66,4.33,0,5.99c-1.65,1.66-4.33,1.66-5.99,0l-0.14-0.14 M45.53,33.23l8.41,8.41c3.61-0.9,7.22-0.82,10.38,0.32
		 M68.4,68.08l13.5,13.5c1.66,1.66,4.34,1.66,5.99,0c1.66-1.66,1.66-4.34,0-5.99l-9.06-9.06L64.16,51.5 M62.41,74.07L78.63,90.3
		c1.66,1.66,4.33,1.66,5.99,0c1.66-1.66,1.66-4.33,0-5.99l-2.72-2.72 M78.19,89.85c1.65,1.65,1.65,4.33,0,5.99
		c-1.66,1.65-4.34,1.65-5.99,0L56.42,80.07"/>
</g>
</svg>
