<?xml version="1.0" encoding="utf-8"?>
<!-- Generator: Adobe Illustrator 26.2.1, SVG Export Plug-In . SVG Version: 6.00 Build 0)  -->
<svg version="1.1" id="Layer_1" xmlns="http://www.w3.org/2000/svg" xmlns:xlink="http://www.w3.org/1999/xlink" x="0px" y="0px"
	 viewBox="0 0 126.91 126.91" style="enable-background:new 0 0 126.91 126.91;" xml:space="preserve">
<style type="text/css">
	.st0{clip-path:url(#SVGID_00000144330536628327313500000017696617601679682944_);fill:none;stroke:#007B3E;stroke-width:2.214;}
	
		.st1{clip-path:url(#SVGID_00000144330536628327313500000017696617601679682944_);fill:none;stroke:#007B3E;stroke-width:2.12;stroke-linejoin:round;stroke-miterlimit:10;}
	.st2{fill:none;stroke:#007B3E;stroke-width:2.12;stroke-linecap:round;stroke-linejoin:round;stroke-miterlimit:10;}
</style>
<g>
	<defs>
		<rect id="SVGID_1_" x="0" y="0" width="126.92" height="126.92"/>
	</defs>
	<clipPath id="SVGID_00000093865989918629609390000016965162486208583862_">
		<use xlink:href="#SVGID_1_"  style="overflow:visible;"/>
	</clipPath>
	
		<circle style="clip-path:url(#SVGID_00000093865989918629609390000016965162486208583862_);fill:none;stroke:#007B3E;stroke-width:2.214;" cx="63.46" cy="63.46" r="62.35"/>
	
		<path style="clip-path:url(#SVGID_00000093865989918629609390000016965162486208583862_);fill:none;stroke:#007B3E;stroke-width:2.12;stroke-linejoin:round;stroke-miterlimit:10;" d="
		M73.28,24.98l-3.28,1.64l-3.27-1.64l-3.27,1.64l-3.28-1.64l-3.27,1.64l-3.27-1.64v18.01h19.65V24.98z M76.55,61h-26.2v-9.82h26.2
		V61z M74.92,36.44h8.19v55.67c0,5.42-4.4,9.82-9.82,9.82H53.63c-5.42,0-9.82-4.4-9.82-9.82V36.44h9.82"/>
</g>
<path class="st2" d="M71.64,93.75h3.28 M61.82,93.75h3.28 M52,93.75h3.27 M71.64,87.2h3.28 M61.82,87.2h3.28 M52,87.2h3.27
	 M71.64,80.65h3.28 M61.82,80.65h3.28 M52,80.65h3.27 M71.64,74.1h3.28 M61.82,74.1h3.28 M52,74.1h3.27 M71.64,67.55h3.28
	 M61.82,67.55h3.28 M52,67.55h3.27"/>
</svg>
