<?xml version="1.0" encoding="utf-8"?>
<!-- Generator: Adobe Illustrator 26.2.1, SVG Export Plug-In . SVG Version: 6.00 Build 0)  -->
<svg version="1.1" id="Layer_1" xmlns="http://www.w3.org/2000/svg" xmlns:xlink="http://www.w3.org/1999/xlink" x="0px" y="0px"
	 viewBox="0 0 140.08 140.08" style="enable-background:new 0 0 140.08 140.08;" xml:space="preserve">
<style type="text/css">
	.st0{fill:none;stroke:#007B3E;stroke-width:2.443;}
	.st1{fill:none;stroke:#007B3E;stroke-width:2.34;stroke-linecap:round;stroke-linejoin:round;stroke-miterlimit:10;}
</style>
<circle class="st0" cx="70.04" cy="70.04" r="68.82"/>
<path class="st1" d="M40.04,84.54h60 M70.04,62.04v-25 M55.04,48.61c-13.05,4.22-22.5,16.47-22.5,30.93v2.5l-5,5v7.5
	c0,1.38,1.12,2.5,2.5,2.5h80c1.38,0,2.5-1.12,2.5-2.5v-7.5l-5-5v-2.5c0-14.46-9.45-26.72-22.5-30.93 M85.04,57.04v-15
	c0-2.76-2.24-5-5-5h-20c-2.76,0-5,2.24-5,5v15"/>
</svg>
