<svg xmlns="http://www.w3.org/2000/svg" width="140.083" height="140.083" viewBox="0 0 140.083 140.083">
  <g id="RingConsumer" transform="translate(0.001 0.002)">
    <circle id="Ellipse_566" data-name="Ellipse 566" cx="68.82" cy="68.82" r="68.82" transform="translate(1.22 1.22)" fill="none" stroke="#007b3e" stroke-width="2.443"/>
    <path id="Path_15144" data-name="Path 15144" d="M53.19,54.01H88.65m-35.46-7.1H88.65M85.1,68.19H56.73a3.549,3.549,0,0,1-3.55-3.54V43.37a3.551,3.551,0,0,1,3.55-3.55H85.1a3.551,3.551,0,0,1,3.55,3.55V64.64A3.551,3.551,0,0,1,85.1,68.19ZM58.51,101.87H79.78m12.41,0a7.09,7.09,0,1,1-7.09-7.09A7.085,7.085,0,0,1,92.19,101.87Zm-33.68,0a7.09,7.09,0,1,1-7.09-7.09A7.085,7.085,0,0,1,58.51,101.87ZM44.32,54.01V46.92H33.69m60.27,7.09h7.09L93.96,85.92H44.32V54.01h3.55" fill="none" stroke="#007b3e" stroke-miterlimit="10" stroke-width="1.905"/>
  </g>
</svg>
