<?xml version="1.0" encoding="utf-8"?>
<!-- Generator: Adobe Illustrator 26.2.1, SVG Export Plug-In . SVG Version: 6.00 Build 0)  -->
<svg version="1.1" id="Layer_1" xmlns="http://www.w3.org/2000/svg" xmlns:xlink="http://www.w3.org/1999/xlink" x="0px" y="0px"
	 viewBox="0 0 140.08 140.08" style="enable-background:new 0 0 140.08 140.08;" xml:space="preserve">
<style type="text/css">
	.st0{fill:none;stroke:#007B3E;stroke-width:2.443;}
	.st1{fill:none;stroke:#007B3E;stroke-width:2.34;stroke-miterlimit:10;}
</style>
<g>
	<circle class="st0" cx="70.04" cy="70.04" r="68.82"/>
	<path class="st1" d="M64.18,80.73l3.91,3.91l9.78-9.78 M85.68,80.73c0,8.64-7,15.64-15.64,15.64s-15.64-7-15.64-15.64
		s7-15.64,15.64-15.64S85.68,72.09,85.68,80.73z M111.1,63.8L75.57,28.28c-3.05-3.05-8-3.05-11.06,0L28.99,63.8 M83.73,108.1h-39.1
		c-4.32,0-7.82-3.5-7.82-7.82V70.95c0-2.07,0.82-4.06,2.29-5.53l28.18-28.18c1.53-1.53,4-1.53,5.53,0l28.18,28.18
		c1.47,1.47,2.29,3.46,2.29,5.53v29.32c0,4.32-3.5,7.82-7.82,7.82H83.73z"/>
</g>
</svg>
