<?xml version="1.0" encoding="utf-8"?>
<!-- Generator: Adobe Illustrator 26.2.1, SVG Export Plug-In . SVG Version: 6.00 Build 0)  -->
<svg version="1.1" id="Layer_1" xmlns="http://www.w3.org/2000/svg" xmlns:xlink="http://www.w3.org/1999/xlink" x="0px" y="0px"
	 viewBox="0 0 126.91 126.91" style="enable-background:new 0 0 126.91 126.91;" xml:space="preserve">
<style type="text/css">
	.st0{clip-path:url(#SVGID_00000183943329350564283330000001916373615667640200_);fill:none;stroke:#007B3E;stroke-width:2.214;}
	
		.st1{clip-path:url(#SVGID_00000183943329350564283330000001916373615667640200_);fill:none;stroke:#007B3E;stroke-width:2.12;stroke-miterlimit:10;}
</style>
<g>
	<defs>
		<rect id="SVGID_1_" x="0" y="0" width="126.92" height="126.92"/>
	</defs>
	<clipPath id="SVGID_00000033371587624961222560000016754480619313070005_">
		<use xlink:href="#SVGID_1_"  style="overflow:visible;"/>
	</clipPath>
	
		<circle style="clip-path:url(#SVGID_00000033371587624961222560000016754480619313070005_);fill:none;stroke:#007B3E;stroke-width:2.214;" cx="63.46" cy="63.46" r="62.35"/>
	
		<path style="clip-path:url(#SVGID_00000033371587624961222560000016754480619313070005_);fill:none;stroke:#007B3E;stroke-width:2.12;stroke-miterlimit:10;" d="
		M63.46,90.89v6.45l-3.23-3.23L63.46,90.89z M69.91,33.48c13.83,2.96,24.2,15.26,24.2,29.98c0,16.93-13.73,30.66-30.66,30.66
		 M61.84,36.03v-6.45l3.23,3.23L61.84,36.03z M55.39,93.04C42.37,89.5,32.8,77.6,32.8,63.46c0-16.93,13.73-30.66,30.66-30.66
		 M63.46,81.21v-6.45 M63.46,52.16v-6.46 M55.39,69.91v3.23c0,0.89,0.72,1.61,1.61,1.61h12.91c0.89,0,1.61-0.72,1.61-1.61v-3.93
		c0-0.57-0.3-1.09-0.78-1.38l-14.57-8.74c-0.49-0.29-0.78-0.82-0.78-1.38v-3.93c0-0.89,0.72-1.61,1.61-1.61h12.91
		c0.89,0,1.61,0.72,1.61,1.61V57"/>
</g>
</svg>
