<svg xmlns="http://www.w3.org/2000/svg" width="140.083" height="140.083" viewBox="0 0 140.083 140.083">
  <g id="RingBusServ" transform="translate(0.001 0.002)">
    <circle id="Ellipse_565" data-name="Ellipse 565" cx="68.82" cy="68.82" r="68.82" transform="translate(1.22 1.22)" fill="none" stroke="#007b3e" stroke-width="2.443"/>
    <path id="Path_15143" data-name="Path 15143" d="M102.97,51.87v52.58M89.83,63.37v41.08M76.68,71.59v32.86M63.54,83.09v21.36M50.39,74.87v29.58M37.25,83.09v21.36m-4.93,0H107.9M91.47,51.87l9.86-8.22M79.97,60.09l6.57-4.93M65.18,71.59l9.86-8.22M53.68,66.66l6.57,4.93m-21.36,0,8.22-4.93m59.15-24.65a3.29,3.29,0,1,1-3.29-3.29A3.286,3.286,0,0,1,106.26,42.01ZM93.11,53.51a3.29,3.29,0,1,1-3.29-3.29A3.286,3.286,0,0,1,93.11,53.51ZM79.97,61.73a3.29,3.29,0,1,1-3.29-3.29A3.286,3.286,0,0,1,79.97,61.73ZM66.82,73.23a3.29,3.29,0,1,1-3.29-3.29A3.286,3.286,0,0,1,66.82,73.23ZM53.68,65.02a3.29,3.29,0,1,1-3.29-3.29A3.286,3.286,0,0,1,53.68,65.02ZM40.53,73.23a3.29,3.29,0,1,1-3.29-3.29A3.286,3.286,0,0,1,40.53,73.23Z" fill="none" stroke="#007b3e" stroke-miterlimit="10" stroke-width="2.34"/>
  </g>
</svg>
