<svg id="RingFounder" xmlns="http://www.w3.org/2000/svg" xmlns:xlink="http://www.w3.org/1999/xlink" width="137" height="137" viewBox="0 0 137 137">
  <defs>
    <clipPath id="clip-path">
      <rect id="Rectangle_9660" data-name="Rectangle 9660" width="137" height="137"/>
    </clipPath>
  </defs>
  <g id="Group_22717" data-name="Group 22717">
    <g id="Group_22714" data-name="Group 22714" clip-path="url(#clip-path)">
      <circle id="Ellipse_567" data-name="Ellipse 567" cx="67.302" cy="67.302" r="67.302" transform="translate(1.198 1.198)" fill="none" stroke="#007b3e" stroke-width="2.214"/>
    </g>
    <g id="Group_22715" data-name="Group 22715" clip-path="url(#clip-path)">
      <path id="Path_15145" data-name="Path 15145" d="M38.4,33.655V98.572a3.6,3.6,0,0,0,3.605,3.605H88.884a3.6,3.6,0,0,0,3.605-3.605v-52.3L76.266,30.05H42.005A3.6,3.6,0,0,0,38.4,33.655Z" transform="translate(3.05 2.387)" fill="none" stroke="#007b3e" stroke-miterlimit="10" stroke-width="2.12"/>
    </g>
    <g id="Group_22716" data-name="Group 22716" clip-path="url(#clip-path)">
      <path id="Path_15146" data-name="Path 15146" d="M89.7,46.274,73.48,30.05V42.668a3.6,3.6,0,0,0,3.605,3.605H89.7Z" transform="translate(5.836 2.387)" fill="none" stroke="#007b3e" stroke-linejoin="round" stroke-miterlimit="10" stroke-width="2.12"/>
    </g>
  </g>
  <path id="Path_15147" data-name="Path 15147" d="M50.3,66.565,53.9,70.17l9.013-9.013M63.823,88.2H85.455M63.823,80.986H85.455M63.823,52.144H85.455M63.823,44.923h6.315M63.823,70.17H85.455M66.522,62.96H85.455M55.706,90H44.89V79.183H55.706ZM48.5,71.973H44.89V61.157H55.706m0-7.211H44.89V43.12H55.706Z" transform="translate(3.565 3.425)" fill="none" stroke="#007b3e" stroke-miterlimit="10" stroke-width="2.12"/>
</svg>
