<svg id="RingSale" xmlns="http://www.w3.org/2000/svg" xmlns:xlink="http://www.w3.org/1999/xlink" width="137.641" height="137.641" viewBox="0 0 137.641 137.641">
  <defs>
    <clipPath id="clip-path">
      <rect id="Rectangle_9667" data-name="Rectangle 9667" width="137.641" height="137.641"/>
    </clipPath>
  </defs>
  <g id="Group_22722" data-name="Group 22722" clip-path="url(#clip-path)">
    <ellipse id="Ellipse_572" data-name="Ellipse 572" cx="67.617" cy="67.617" rx="67.617" ry="67.617" transform="translate(1.204 1.204)" fill="none" stroke="#007b3e" stroke-width="2.214"/>
  </g>
  <g id="Group_22723" data-name="Group 22723" clip-path="url(#clip-path)">
    <path id="Path_15152" data-name="Path 15152" d="M37.744,80.253l1.768-1.768a4.2,4.2,0,0,1,5.932,0l.564.564a4.2,4.2,0,0,1,0,5.932L44.24,86.748a4.2,4.2,0,0,1-5.932,0l-.564-.575A4.182,4.182,0,0,1,37.744,80.253Zm6.5,6.5,1.768-1.768a4.2,4.2,0,0,1,5.932,0l.564.564a4.2,4.2,0,0,1,0,5.932l-1.768,1.768a4.2,4.2,0,0,1-5.932,0l-.564-.564A4.2,4.2,0,0,1,44.24,86.748Zm6.507,6.5,1.768-1.768a4.2,4.2,0,0,1,5.932,0l.564.564a4.2,4.2,0,0,1,0,5.932L57.243,99.74a4.2,4.2,0,0,1-5.932,0l-.564-.564A4.186,4.186,0,0,1,50.747,93.244Zm6.5,6.5,1.768-1.768a4.2,4.2,0,0,1,5.932,0l.564.564a4.2,4.2,0,0,1,0,5.932l-1.768,1.768a4.2,4.2,0,0,1-5.932,0l-.564-.564A4.2,4.2,0,0,1,57.243,99.74Zm48.183-48.183-9.11,9.11c.759,3.047,1.193,11.8-3.882,16.874l-.531.531M87.1,33.23l-9.11,9.11c-3.047-.759-11.8-1.193-16.874,3.882L49.9,57.424a4.593,4.593,0,0,0,6.5,6.5l1.2-1.2,9.652-9.673M59.444,97.6l-.065-.065M46.452,84.612l-.065-.054M27.55,52.718l9.11,9.11c-1.41,5.639-.672,11.365,2.538,15.53l.748.748m13,13-.065-.065m19.64,6.648a4.593,4.593,0,1,1-6.5,6.5l-.152-.152M47.049,33.23l9.12,9.12a19.394,19.394,0,0,1,11.257.347m4.425,28.326,14.64,14.64a4.593,4.593,0,0,0,6.5-6.5l-9.825-9.825-15.909-16.3m-1.9,24.476,17.59,17.6a4.593,4.593,0,0,0,6.5-6.5l-2.95-2.95m-4.023,8.958a4.593,4.593,0,0,1-6.5,6.5l-17.113-17.1" transform="translate(2.327 2.807)" fill="none" stroke="#007b3e" stroke-linecap="round" stroke-linejoin="round" stroke-miterlimit="10" stroke-width="2.12"/>
  </g>
</svg>
