<svg id="RingPartner" xmlns="http://www.w3.org/2000/svg" xmlns:xlink="http://www.w3.org/1999/xlink" width="137.641" height="137.641" viewBox="0 0 137.641 137.641">
  <defs>
    <clipPath id="clip-path">
      <rect id="Rectangle_9663" data-name="Rectangle 9663" width="137.641" height="137.641"/>
    </clipPath>
  </defs>
  <g id="Group_22718" data-name="Group 22718" clip-path="url(#clip-path)">
    <ellipse id="Ellipse_570" data-name="Ellipse 570" cx="67.617" cy="67.617" rx="67.617" ry="67.617" transform="translate(1.204 1.204)" fill="none" stroke="#007b3e" stroke-width="2.214"/>
  </g>
  <g id="Group_22719" data-name="Group 22719" clip-path="url(#clip-path)">
    <path id="Path_15150" data-name="Path 15150" d="M84.02,69.306l5.032,5.032,8.394-8.394m6.713,5.043A13.426,13.426,0,1,1,90.733,57.561,13.422,13.422,0,0,1,104.159,70.987Zm-33.282,0H50.467A16.782,16.782,0,0,0,33.69,87.764V97.828h60.4V91.115M77.307,44.136A13.426,13.426,0,1,1,63.882,30.71,13.422,13.422,0,0,1,77.307,44.136Z" transform="translate(2.846 2.594)" fill="none" stroke="#007b3e" stroke-miterlimit="10" stroke-width="2.12"/>
  </g>
</svg>
